<svg id="Layer_1" data-name="Layer 1" xmlns="http://www.w3.org/2000/svg" fill="#fff" viewBox="0 0 1920 1080">
  <path class="cls-1" d="M1658.64,0c-7,9.35-13.92,18.76-21.03,28.03-9.55,12.45-19.23,24.79-28.87,37.16-12.99,16.66-26.04,33.27-39.01,49.95-12.19,15.68-24.29,31.44-36.48,47.13-13.09,16.84-26.27,33.61-39.36,50.45-12.07,15.52-24.06,31.1-36.12,46.63-13.08,16.84-26.22,33.63-39.27,50.5-12.15,15.7-24.15,31.52-36.33,47.2-12.96,16.69-26.09,33.24-39.06,49.92-12.19,15.68-24.24,31.47-36.41,47.16-12.95,16.69-26.02,33.29-38.98,49.96-12.2,15.68-24.3,31.44-36.49,47.12-13.09,16.84-26.26,33.62-39.34,50.46-9.11,11.72-18.13,23.52-27.21,35.26-1.34,1.73-2.77,3.38-5.07,6.18V126.68h-7.17c-89.16,0-178.31,.03-267.47-.08-4.3,0-7.07,.89-9.9,4.64-19.92,26.34-40.14,52.46-60.43,78.53-20.18,25.92-40.64,51.62-60.8,77.56-15.26,19.63-30.09,39.59-45.35,59.22-18.89,24.28-38.13,48.28-57.02,72.56-15.26,19.63-30.13,39.56-45.35,59.22-18.18,23.49-36.59,46.8-54.79,70.27-20.25,26.1-40.28,52.36-60.59,78.41-21.87,28.05-44.05,55.87-65.89,83.94-15.27,19.62-30.08,39.6-45.33,59.23-20.15,25.94-40.61,51.64-60.79,77.56-13.86,17.8-27.39,35.87-41.22,53.69-14.25,18.35-28.74,36.51-43.03,54.82-15.05,19.29-29.98,38.69-44.98,58.02-13.07,16.85-26.23,33.63-39.24,50.52-3.78,4.9-7.17,10.1-10.74,15.16-46.5,0-93,0-139.5,0,0-1.28,0-2.56,0-3.83,5.57-6.97,11.19-13.89,16.7-20.9,14.36-18.25,28.73-36.49,43-54.81,13.87-17.81,27.58-35.74,41.42-53.57,14.23-18.33,28.55-36.6,42.8-54.92,10.91-14.03,21.76-28.1,32.67-42.13,14.37-18.49,28.77-36.95,43.15-55.43,13.75-17.66,27.5-35.31,41.23-52.98,14.49-18.65,28.98-37.29,43.41-55.98,13.79-17.86,27.42-35.83,41.25-53.65,14.24-18.34,28.68-36.53,42.95-54.85,10.91-14.01,21.62-28.18,32.52-42.2,14.24-18.33,28.58-36.59,42.86-54.89,10.81-13.85,21.63-27.7,32.41-41.57,14.49-18.65,28.95-37.32,43.4-55.99,12.03-15.54,24.03-31.1,36.08-46.63,13.07-16.84,26.23-33.62,39.28-50.48,12.15-15.7,24.15-31.51,36.32-47.19,12.95-16.68,26.06-33.25,39.05-49.91,12.09-15.5,24.11-31.05,36.18-46.57,13.21-17,26.47-33.95,39.63-50.99,12.12-15.71,24.06-31.55,36.21-47.24,9.86-12.74,19.93-25.32,29.85-38.02,1.27-1.62,2.24-3.48,3.35-5.22,140.78,0,281.56,0,422.34,0V333.34c7.48-7.63,13.54-15.6,19.68-23.52,13.07-16.85,26.19-33.66,39.26-50.5,12.06-15.53,24.05-31.1,36.12-46.62,13.09-16.84,26.26-33.61,39.35-50.45,12.19-15.68,24.29-31.44,36.48-47.12,12.97-16.67,26.01-33.29,39-49.95,9.65-12.37,19.33-24.71,28.87-37.15,7.11-9.27,14.03-18.68,21.03-28.03,46.93,0,93.85,0,140.78,0Z"/>
  <path class="cls-1" d="M1159.52,1079.95c0-88.93,.3-177.85-.35-266.77-.09-11.89,4.2-20.2,11-28.69,11.63-14.51,22.79-29.4,34.24-44.06,14.3-18.31,28.74-36.51,43.01-54.84,13.87-17.81,27.56-35.76,41.4-53.6,14.24-18.34,28.59-36.59,42.85-54.92,10.91-14.03,21.73-28.13,32.63-42.17,14.24-18.34,28.52-36.63,42.77-54.96,10.91-14.03,21.8-28.09,32.71-42.13,14.37-18.49,28.8-36.94,43.13-55.46,12.15-15.7,24.12-31.54,36.3-47.22,12.96-16.69,26.12-33.23,39.09-49.91,12.19-15.68,24.2-31.49,36.38-47.18,12.96-16.69,26.03-33.28,39.02-49.94,12.09-15.51,24.13-31.05,36.19-46.58,13.21-17,26.48-33.97,39.64-51.01,12.13-15.71,24.08-31.56,36.23-47.25,9.87-12.74,19.93-25.33,29.86-38.03,1.27-1.62,2.24-3.48,3.35-5.22,45.22,0,90.44-.01,135.66,.05,1.71,0,3.41,.8,5.12,1.23-11.09,14.09-22.26,28.11-33.26,42.27-15.14,19.48-30.09,39.1-45.23,58.57-14.26,18.34-28.74,36.5-42.99,54.85-13.84,17.82-27.4,35.86-41.25,53.66-17.22,22.13-34.76,44.01-51.88,66.21-14.25,18.48-27.93,37.4-42.13,55.92-16.42,21.41-33.19,42.54-49.71,63.87-17.15,22.14-34.14,44.41-51.28,66.56-19.82,25.61-39.73,51.16-59.57,76.7,4.83,6.13,9.53,12.01,14.14,17.95,10.88,14.05,21.68,28.16,32.59,42.18,14.26,18.33,28.64,36.56,42.89,54.9,10.9,14.03,21.6,28.2,32.51,42.22,14.27,18.33,28.71,36.52,42.96,54.86,10.9,14.02,21.57,28.21,32.42,42.27,14.43,18.7,28.91,37.36,43.4,56.01,10.78,13.88,21.61,27.72,32.42,41.58,14.28,18.3,28.6,36.58,42.84,54.92,13.84,17.83,27.54,35.78,41.41,53.59,14.27,18.33,28.65,36.57,43.02,54.83,5.52,7.01,11.13,13.94,16.7,20.91,1.18,4.4-1.69,3.87-4.48,3.87-45.01-.04-90.01-.03-135.02-.03-4.68-6.33-9.28-12.73-14.06-18.98-10.77-14.11-21.6-28.19-32.47-42.23-14.33-18.51-28.73-36.97-43.1-55.45-10.91-14.03-21.79-28.08-32.7-42.11-14.25-18.32-28.53-36.6-42.76-54.93-10.89-14.03-21.69-28.14-32.6-42.16-14.26-18.32-28.62-36.55-42.86-54.89-10.89-14.02-21.63-28.17-32.5-42.21-14.33-18.51-28.72-36.97-43.1-55.45-10.85-13.94-21.73-27.85-32.8-42.05-1.81,3.29-3,6.48-5.03,8.98-10.51,12.92-21.37,25.56-31.85,38.51-7.23,8.93-14.13,18.13-20.91,27.4-.85,1.16-.77,4.04,.1,5.24,4.54,6.27,9.51,12.21,14.25,18.33,18.95,24.45,37.82,48.95,56.8,73.38,18.22,23.45,36.61,46.75,54.78,70.24,15.21,19.66,30.06,39.59,45.32,59.21,18.88,24.27,38.09,48.29,57.02,72.52,16.09,20.58,32.07,41.25,47.9,62.03,3.45,4.53,6.02,9.72,8.99,14.61h-139.5c-3.57-5.06-6.97-10.26-10.74-15.17-13.01-16.89-26.17-33.67-39.24-50.51-12.05-15.53-24.02-31.13-36.13-46.61-13.02-16.65-26.25-33.14-39.22-49.84-12.17-15.67-24.06-31.56-36.17-47.28-14.42-18.71-28.91-37.36-43.43-55.98-4.05-5.19-8.31-10.21-12.49-15.32-1.2,1.04-1.76,1.4-2.16,1.88-12.73,15.7-25.59,31.29-38.03,47.22-2.1,2.69-3.34,6.82-3.34,10.28-.19,73.77-.14,147.55-.14,221.33h-98.55Z"/>
  <path class="cls-1" d="M261.08,1079.95c2.97-4.89,5.55-10.08,8.99-14.61,15.82-20.78,31.81-41.45,47.9-62.03,18.93-24.23,38.14-48.25,57.02-72.52,15.26-19.62,30.14-39.53,45.32-59.21,19.15-24.82,38.4-49.57,57.75-74.24,1.11-1.42,3.43-2.04,5.3-2.66,1.15-.38,2.53-.07,3.81-.07,192.96,0,385.91,0,578.87,0h7.72v285.34h-99.83v-157.39h-174.67c-90.6,0-181.2,.02-271.8-.08-3.86,0-6.39,.9-8.87,4.12-16.84,21.86-34.02,43.47-50.95,65.27-17.17,22.11-34.22,44.31-51.24,66.53-5.42,7.07-10.56,14.35-15.83,21.54h-139.5Z"/>
  <path class="cls-1" d="M567.48,684.13c1.64-2.92,2.65-5.38,4.21-7.4,22.12-28.62,44.32-57.19,66.51-85.77,22.18-28.58,44.37-57.15,66.55-85.73,22.18-28.58,44.37-57.15,66.55-85.73,22.18-28.58,44.36-57.16,66.56-85.73,20.92-26.92,41.87-53.81,62.8-80.71,2.95-3.8,6-7.52,8.82-11.42,2.61-3.61,5.59-5.09,10.38-5.07,50.97,.24,101.95,.15,153.41,.15v447.41h-505.79Zm406.25-322.01c-5.12,0-9.58-.15-14.02,.09-1.35,.08-2.96,.97-3.88,2-3.06,3.44-5.92,7.06-8.74,10.7-10.88,14.03-21.67,28.13-32.58,42.14-14.26,18.31-28.62,36.54-42.89,54.84-11.3,14.5-22.56,29.03-33.78,43.59-10.39,13.48-20.72,27-31.22,40.69h167.12v-194.06Z"/>
</svg>